<svg id="Layer_1" data-name="Layer 1" xmlns="http://www.w3.org/2000/svg" viewBox="0 0 614.45 92.48"><defs><style>.cls-1{fill:#0071ce;}.cls-2{fill:#ffa400;}.cls-3{fill:#3dae2b;}.cls-4{fill:none;stroke:#ccc;stroke-width:2px;}.cls-5{fill:gray;}</style></defs><title>Artboard 1</title><path class="cls-1" d="M30.54,63.14a27.62,27.62,0,0,1,3.78-36.63,27.62,27.62,0,1,0,29.82,46.4A26.6,26.6,0,0,0,66.53,71,27.62,27.62,0,0,1,30.54,63.14Z"/><path class="cls-2" d="M73.08,45.93A27.64,27.64,0,0,1,44.64,69.34a26.58,26.58,0,0,0,3,.63A27.63,27.63,0,0,0,56,15.36,29.21,29.21,0,0,0,53,15.07,27.62,27.62,0,0,1,73.08,45.93Z"/><path class="cls-3" d="M42.88,22.81A27.64,27.64,0,0,1,70.33,47.37a28.28,28.28,0,0,0,.17-3.07,27.63,27.63,0,1,0-55.25,0,28.28,28.28,0,0,0,.17,3.07A27.63,27.63,0,0,1,42.88,22.81Z"/><path class="cls-1" d="M89.19,23.88h6.35v7H89.19ZM95.54,36.1V61.78l-6.35.57V36.77Z"/><path class="cls-1" d="M123.46,45.75v16l-6.38.57V47.12a6.28,6.28,0,0,0-1-3.78A3.35,3.35,0,0,0,113.27,42a3.76,3.76,0,0,0-3.22,1.46,7,7,0,0,0-1.11,4.31v14l-6.38.57V36.77l6.38-.67V39a10.16,10.16,0,0,1,3.24-2.39,9.26,9.26,0,0,1,3.85-.81,6.53,6.53,0,0,1,5.59,2.46Q123.46,40.72,123.46,45.75Z"/><path class="cls-1" d="M148.85,39.46a10.29,10.29,0,0,1,3.32-2.71,9.13,9.13,0,0,1,4.06-.91,6.45,6.45,0,0,1,5.53,2.45c1.2,1.64,1.81,4.12,1.81,7.46v16l-6.38.57V47.12a6.36,6.36,0,0,0-.87-3.63,2.81,2.81,0,0,0-2.47-1.27,3.38,3.38,0,0,0-2.93,1.41,7.17,7.17,0,0,0-1,4.17v14l-6.38.57V47.12a6.63,6.63,0,0,0-.83-3.63,2.73,2.73,0,0,0-2.44-1.27,3.38,3.38,0,0,0-2.93,1.41,7.09,7.09,0,0,0-1,4.17v14l-6.38.57V36.77l6.38-.67V39a10.64,10.64,0,0,1,3.08-2.31,7.44,7.44,0,0,1,7,.07A6.39,6.39,0,0,1,148.85,39.46Z"/><path class="cls-1" d="M188.64,45V61.71l-5.84.64V59.88a7.24,7.24,0,0,1-2.59,2.06,8.12,8.12,0,0,1-3.47.7,8,8,0,0,1-6-2.5,8.68,8.68,0,0,1-2.41-6.25,8.85,8.85,0,0,1,2.42-6.43A8.49,8.49,0,0,1,177.1,45a8.18,8.18,0,0,1,3.14.56,5.84,5.84,0,0,1,2.31,1.65V44.91a2.9,2.9,0,0,0-1-2.53,6.63,6.63,0,0,0-3.62-.71,17.25,17.25,0,0,0-3,.28,21.47,21.47,0,0,0-3.06.78l1.5-6.09c1.37-.19,2.57-.33,3.61-.41s2-.13,2.77-.13q4.88,0,6.9,1.78C188,39.06,188.64,41.45,188.64,45Zm-10.1,5a4.06,4.06,0,0,0-2.87,1,3.39,3.39,0,0,0,0,5.05,4.58,4.58,0,0,0,5.76,0,3.35,3.35,0,0,0,0-5.05A4.08,4.08,0,0,0,178.54,50.07Z"/><path class="cls-1" d="M208.45,36.29v6.25c-2.63,0-4.44.54-5.42,1.48s-1.47,2.7-1.47,5.28V61.78l-6.38.57V36.77l6.38-.67v3.3a7.59,7.59,0,0,1,2.91-2.34A9.64,9.64,0,0,1,208.45,36.29Z"/><path class="cls-1" d="M205.59,25.58a3,3,0,1,1,0,6,3,3,0,1,1,0-6Zm0,.59a2.38,2.38,0,0,0,0,4.75,2.27,2.27,0,0,0,2.26-2.37,2.3,2.3,0,0,0-2.28-2.38Zm-.45,3.92h-.69v-3a6.21,6.21,0,0,1,1.14-.1,1.7,1.7,0,0,1,1,.23.79.79,0,0,1,.29.63.76.76,0,0,1-.61.71v0c.29.09.45.32.54.72a2,2,0,0,0,.22.73h-.74a2.44,2.44,0,0,1-.24-.71c0-.33-.23-.47-.61-.47h-.33Zm0-1.67h.32c.38,0,.69-.13.69-.43s-.2-.46-.63-.46a1.49,1.49,0,0,0-.38,0Z"/></svg>